<svg width="24" height="30" viewBox="0 0 24 30" fill="none" xmlns="http://www.w3.org/2000/svg">
<g id="Interface / Lock">
<rect width="24" height="29.1429" rx="7" fill="url(#paint0_linear_86_577)"/>
<path id="Vector" d="M9.23047 10.9285H7.2002C6.08009 10.9285 5.51962 10.9285 5.0918 11.1932C4.71547 11.4261 4.40973 11.7973 4.21799 12.2543C4 12.7738 4 13.4544 4 14.8145V21.6145C4 22.9746 4 23.6543 4.21799 24.1738C4.40973 24.6308 4.71547 25.0027 5.0918 25.2355C5.5192 25.5 6.07902 25.5 7.19694 25.5H16.8031C17.921 25.5 18.48 25.5 18.9074 25.2355C19.2837 25.0027 19.5905 24.6308 19.7822 24.1738C20 23.6548 20 22.9761 20 21.6186V14.8105C20 13.453 20 12.7733 19.7822 12.2543C19.5905 11.7973 19.2837 11.4261 18.9074 11.1932C18.4796 10.9285 17.9203 10.9285 16.8002 10.9285H14.7689M9.23047 10.9285H14.7689M9.23047 10.9285C9.10302 10.9285 9 10.8031 9 10.6483V7.28568C9 5.27379 10.3431 3.64282 12 3.64282C13.6569 3.64282 15 5.27379 15 7.28568V10.6483C15 10.8031 14.8964 10.9285 14.7689 10.9285" stroke="#005581" stroke-width="2" stroke-linecap="round" stroke-linejoin="round"/>
</g>
<defs>
<linearGradient id="paint0_linear_86_577" x1="0.118812" y1="4.57144" x2="24.4005" y2="4.81422" gradientUnits="userSpaceOnUse">
<stop offset="0.046245" stop-color="white"/>
<stop offset="1" stop-color="white" stop-opacity="0"/>
</linearGradient>
</defs>
</svg>
