<svg width="25" height="25" viewBox="0 0 25 25" fill="none" xmlns="http://www.w3.org/2000/svg">
<g id="Group 3">
<path id="Vector" d="M22.7312 0.0156402C22.7052 0.0135422 22.6833 0 22.6562 0H11.4584C9.73547 0 8.33337 1.40209 8.33337 3.125V4.1666C8.33337 4.74167 8.79991 5.2084 9.37498 5.2084C9.95004 5.2084 10.4166 4.74167 10.4166 4.1666V3.125C10.4166 2.55108 10.8843 2.0834 11.4584 2.0834H16.3114L15.9937 2.18964C15.15 2.48127 14.5834 3.27606 14.5834 4.1666V19.7916H11.4584C10.8843 19.7916 10.4166 19.3239 10.4166 18.75V16.6666C10.4166 16.0917 9.95004 15.625 9.37498 15.625C8.79991 15.625 8.33337 16.0917 8.33337 16.6666V18.75C8.33337 20.4729 9.73547 21.875 11.4584 21.875H14.5834V22.9166C14.5834 24.0656 15.5176 25 16.6666 25C16.8895 25 17.1011 24.9678 17.3301 24.8968L23.5885 22.8104C24.4333 22.5187 25 21.7239 25 20.8334V2.0834C25 0.868797 23.953 -0.0833511 22.7312 0.0156402Z" fill="#005581"/>
<path id="Vector_2" d="M11.153 9.68017L6.98643 5.51356C6.6885 5.21564 6.24065 5.12599 5.85098 5.28754C5.46246 5.44891 5.2084 5.82923 5.2084 6.24999V9.37499H1.0416C0.466728 9.37499 0 9.84172 0 10.4166C0 10.9917 0.466728 11.4584 1.0416 11.4584H5.2084V14.5834C5.2084 15.0042 5.46246 15.3843 5.85098 15.5458C6.24065 15.7072 6.6885 15.6177 6.98643 15.3198L11.153 11.153C11.5604 10.7458 11.5604 10.0876 11.153 9.68017Z" fill="#005581"/>
</g>
</svg>
